<mxfile host="Electron" modified="2024-07-05T21:04:42.044Z" agent="Mozilla/5.0 (Windows NT 10.0; Win64; x64) AppleWebKit/537.36 (KHTML, like Gecko) draw.io/24.2.5 Chrome/120.0.6099.109 Electron/28.1.0 Safari/537.36" etag="tGBdZzuWKQQmcEO1b1kw" version="24.2.5" type="device">
  <diagram id="C5RBs43oDa-KdzZeNtuy" name="Page-1">
    <mxGraphModel dx="674" dy="828" grid="1" gridSize="10" guides="1" tooltips="1" connect="1" arrows="1" fold="1" page="1" pageScale="1" pageWidth="827" pageHeight="1169" math="0" shadow="0">
      <root>
        <mxCell id="WIyWlLk6GJQsqaUBKTNV-0" />
        <mxCell id="WIyWlLk6GJQsqaUBKTNV-1" parent="WIyWlLk6GJQsqaUBKTNV-0" />
        <mxCell id="xOspjYhr5WOX9m4JDDgR-2" value="" style="edgeStyle=orthogonalEdgeStyle;rounded=0;orthogonalLoop=1;jettySize=auto;html=1;" edge="1" parent="WIyWlLk6GJQsqaUBKTNV-1" source="xOspjYhr5WOX9m4JDDgR-0" target="xOspjYhr5WOX9m4JDDgR-1">
          <mxGeometry relative="1" as="geometry" />
        </mxCell>
        <mxCell id="xOspjYhr5WOX9m4JDDgR-0" value="START" style="ellipse;whiteSpace=wrap;html=1;" vertex="1" parent="WIyWlLk6GJQsqaUBKTNV-1">
          <mxGeometry x="354" y="10" width="120" height="60" as="geometry" />
        </mxCell>
        <mxCell id="xOspjYhr5WOX9m4JDDgR-4" value="" style="edgeStyle=orthogonalEdgeStyle;rounded=0;orthogonalLoop=1;jettySize=auto;html=1;" edge="1" parent="WIyWlLk6GJQsqaUBKTNV-1" source="xOspjYhr5WOX9m4JDDgR-1" target="xOspjYhr5WOX9m4JDDgR-3">
          <mxGeometry relative="1" as="geometry" />
        </mxCell>
        <mxCell id="xOspjYhr5WOX9m4JDDgR-1" value="&lt;font style=&quot;font-size: 18px;&quot;&gt;string[] array =&amp;nbsp; {&quot;Hello&quot; , &quot;2&quot; , &quot;world&quot; , &quot;:-)&quot;}&lt;/font&gt;&lt;div&gt;&lt;font style=&quot;font-size: 18px;&quot;&gt;int lenArray = 0&lt;/font&gt;&lt;/div&gt;" style="shape=parallelogram;perimeter=parallelogramPerimeter;whiteSpace=wrap;html=1;fixedSize=1;" vertex="1" parent="WIyWlLk6GJQsqaUBKTNV-1">
          <mxGeometry x="164" y="110" width="500" height="60" as="geometry" />
        </mxCell>
        <mxCell id="xOspjYhr5WOX9m4JDDgR-6" value="" style="edgeStyle=orthogonalEdgeStyle;rounded=0;orthogonalLoop=1;jettySize=auto;html=1;" edge="1" parent="WIyWlLk6GJQsqaUBKTNV-1" source="xOspjYhr5WOX9m4JDDgR-3" target="xOspjYhr5WOX9m4JDDgR-5">
          <mxGeometry relative="1" as="geometry" />
        </mxCell>
        <mxCell id="xOspjYhr5WOX9m4JDDgR-29" style="edgeStyle=orthogonalEdgeStyle;rounded=0;orthogonalLoop=1;jettySize=auto;html=1;entryX=1;entryY=0.25;entryDx=0;entryDy=0;" edge="1" parent="WIyWlLk6GJQsqaUBKTNV-1" source="xOspjYhr5WOX9m4JDDgR-3" target="xOspjYhr5WOX9m4JDDgR-24">
          <mxGeometry relative="1" as="geometry">
            <Array as="points">
              <mxPoint x="680" y="225" />
              <mxPoint x="680" y="555" />
            </Array>
          </mxGeometry>
        </mxCell>
        <mxCell id="xOspjYhr5WOX9m4JDDgR-3" value="&lt;font style=&quot;font-size: 18px;&quot;&gt;&amp;nbsp;i = 0; i &amp;lt; array.Length; i++&lt;/font&gt;" style="shape=hexagon;perimeter=hexagonPerimeter2;whiteSpace=wrap;html=1;fixedSize=1;" vertex="1" parent="WIyWlLk6GJQsqaUBKTNV-1">
          <mxGeometry x="219" y="200" width="390" height="50" as="geometry" />
        </mxCell>
        <mxCell id="xOspjYhr5WOX9m4JDDgR-8" value="" style="edgeStyle=orthogonalEdgeStyle;rounded=0;orthogonalLoop=1;jettySize=auto;html=1;" edge="1" parent="WIyWlLk6GJQsqaUBKTNV-1" source="xOspjYhr5WOX9m4JDDgR-5" target="xOspjYhr5WOX9m4JDDgR-7">
          <mxGeometry relative="1" as="geometry" />
        </mxCell>
        <mxCell id="xOspjYhr5WOX9m4JDDgR-9" style="edgeStyle=orthogonalEdgeStyle;rounded=0;orthogonalLoop=1;jettySize=auto;html=1;entryX=0;entryY=0.5;entryDx=0;entryDy=0;" edge="1" parent="WIyWlLk6GJQsqaUBKTNV-1" source="xOspjYhr5WOX9m4JDDgR-5" target="xOspjYhr5WOX9m4JDDgR-3">
          <mxGeometry relative="1" as="geometry">
            <mxPoint x="120" y="230" as="targetPoint" />
            <Array as="points">
              <mxPoint x="199" y="345" />
              <mxPoint x="199" y="225" />
            </Array>
          </mxGeometry>
        </mxCell>
        <mxCell id="xOspjYhr5WOX9m4JDDgR-5" value="&lt;font style=&quot;font-size: 18px;&quot;&gt;array[i].Length &amp;lt;=3&lt;/font&gt;" style="rhombus;whiteSpace=wrap;html=1;" vertex="1" parent="WIyWlLk6GJQsqaUBKTNV-1">
          <mxGeometry x="254" y="290" width="320" height="110" as="geometry" />
        </mxCell>
        <mxCell id="xOspjYhr5WOX9m4JDDgR-12" style="edgeStyle=orthogonalEdgeStyle;rounded=0;orthogonalLoop=1;jettySize=auto;html=1;" edge="1" parent="WIyWlLk6GJQsqaUBKTNV-1" source="xOspjYhr5WOX9m4JDDgR-7">
          <mxGeometry relative="1" as="geometry">
            <mxPoint x="200" y="340" as="targetPoint" />
          </mxGeometry>
        </mxCell>
        <mxCell id="xOspjYhr5WOX9m4JDDgR-7" value="&lt;font style=&quot;font-size: 18px;&quot;&gt;lenArray++&lt;/font&gt;" style="rounded=0;whiteSpace=wrap;html=1;" vertex="1" parent="WIyWlLk6GJQsqaUBKTNV-1">
          <mxGeometry x="329" y="450" width="170" height="60" as="geometry" />
        </mxCell>
        <mxCell id="xOspjYhr5WOX9m4JDDgR-10" value="NO" style="text;html=1;align=center;verticalAlign=middle;resizable=0;points=[];autosize=1;strokeColor=none;fillColor=none;" vertex="1" parent="WIyWlLk6GJQsqaUBKTNV-1">
          <mxGeometry x="214" y="310" width="40" height="30" as="geometry" />
        </mxCell>
        <mxCell id="xOspjYhr5WOX9m4JDDgR-11" value="YES" style="text;html=1;align=center;verticalAlign=middle;resizable=0;points=[];autosize=1;strokeColor=none;fillColor=none;" vertex="1" parent="WIyWlLk6GJQsqaUBKTNV-1">
          <mxGeometry x="418" y="410" width="50" height="30" as="geometry" />
        </mxCell>
        <mxCell id="xOspjYhr5WOX9m4JDDgR-16" value="" style="edgeStyle=orthogonalEdgeStyle;rounded=0;orthogonalLoop=1;jettySize=auto;html=1;" edge="1" parent="WIyWlLk6GJQsqaUBKTNV-1" source="xOspjYhr5WOX9m4JDDgR-13" target="xOspjYhr5WOX9m4JDDgR-15">
          <mxGeometry relative="1" as="geometry" />
        </mxCell>
        <mxCell id="xOspjYhr5WOX9m4JDDgR-13" value="&lt;font style=&quot;font-size: 18px;&quot;&gt;&amp;nbsp;i = 0; i &amp;lt; array.Length; i++&lt;/font&gt;" style="shape=hexagon;perimeter=hexagonPerimeter2;whiteSpace=wrap;html=1;fixedSize=1;" vertex="1" parent="WIyWlLk6GJQsqaUBKTNV-1">
          <mxGeometry x="219" y="650" width="361" height="50" as="geometry" />
        </mxCell>
        <mxCell id="xOspjYhr5WOX9m4JDDgR-20" value="" style="edgeStyle=orthogonalEdgeStyle;rounded=0;orthogonalLoop=1;jettySize=auto;html=1;" edge="1" parent="WIyWlLk6GJQsqaUBKTNV-1" source="xOspjYhr5WOX9m4JDDgR-15" target="xOspjYhr5WOX9m4JDDgR-19">
          <mxGeometry relative="1" as="geometry" />
        </mxCell>
        <mxCell id="xOspjYhr5WOX9m4JDDgR-27" style="edgeStyle=orthogonalEdgeStyle;rounded=0;orthogonalLoop=1;jettySize=auto;html=1;entryX=0;entryY=0.5;entryDx=0;entryDy=0;exitX=0;exitY=0.5;exitDx=0;exitDy=0;" edge="1" parent="WIyWlLk6GJQsqaUBKTNV-1" source="xOspjYhr5WOX9m4JDDgR-15" target="xOspjYhr5WOX9m4JDDgR-13">
          <mxGeometry relative="1" as="geometry">
            <Array as="points">
              <mxPoint x="199" y="775" />
              <mxPoint x="199" y="675" />
            </Array>
          </mxGeometry>
        </mxCell>
        <mxCell id="xOspjYhr5WOX9m4JDDgR-15" value="&lt;font style=&quot;font-size: 18px;&quot;&gt;array[i].Length &amp;lt;=3&lt;/font&gt;" style="rhombus;whiteSpace=wrap;html=1;" vertex="1" parent="WIyWlLk6GJQsqaUBKTNV-1">
          <mxGeometry x="239.5" y="740" width="320" height="70" as="geometry" />
        </mxCell>
        <mxCell id="xOspjYhr5WOX9m4JDDgR-18" value="NO" style="text;html=1;align=center;verticalAlign=middle;resizable=0;points=[];autosize=1;strokeColor=none;fillColor=none;" vertex="1" parent="WIyWlLk6GJQsqaUBKTNV-1">
          <mxGeometry x="199.5" y="730" width="40" height="30" as="geometry" />
        </mxCell>
        <mxCell id="xOspjYhr5WOX9m4JDDgR-30" value="" style="edgeStyle=orthogonalEdgeStyle;rounded=0;orthogonalLoop=1;jettySize=auto;html=1;" edge="1" parent="WIyWlLk6GJQsqaUBKTNV-1" source="xOspjYhr5WOX9m4JDDgR-19" target="xOspjYhr5WOX9m4JDDgR-22">
          <mxGeometry relative="1" as="geometry" />
        </mxCell>
        <mxCell id="xOspjYhr5WOX9m4JDDgR-31" style="edgeStyle=orthogonalEdgeStyle;rounded=0;orthogonalLoop=1;jettySize=auto;html=1;" edge="1" parent="WIyWlLk6GJQsqaUBKTNV-1" source="xOspjYhr5WOX9m4JDDgR-19">
          <mxGeometry relative="1" as="geometry">
            <mxPoint x="200" y="770" as="targetPoint" />
          </mxGeometry>
        </mxCell>
        <mxCell id="xOspjYhr5WOX9m4JDDgR-19" value="&lt;font style=&quot;font-size: 18px;&quot;&gt;newArray[index] = array[i]&lt;/font&gt;&lt;div&gt;&lt;font style=&quot;font-size: 18px;&quot;&gt;index++&lt;/font&gt;&lt;/div&gt;" style="rounded=0;whiteSpace=wrap;html=1;" vertex="1" parent="WIyWlLk6GJQsqaUBKTNV-1">
          <mxGeometry x="264.5" y="850" width="270" height="80" as="geometry" />
        </mxCell>
        <mxCell id="xOspjYhr5WOX9m4JDDgR-21" value="YES" style="text;html=1;align=center;verticalAlign=middle;resizable=0;points=[];autosize=1;strokeColor=none;fillColor=none;" vertex="1" parent="WIyWlLk6GJQsqaUBKTNV-1">
          <mxGeometry x="400" y="820" width="50" height="30" as="geometry" />
        </mxCell>
        <mxCell id="xOspjYhr5WOX9m4JDDgR-33" value="" style="edgeStyle=orthogonalEdgeStyle;rounded=0;orthogonalLoop=1;jettySize=auto;html=1;" edge="1" parent="WIyWlLk6GJQsqaUBKTNV-1" source="xOspjYhr5WOX9m4JDDgR-22" target="xOspjYhr5WOX9m4JDDgR-32">
          <mxGeometry relative="1" as="geometry" />
        </mxCell>
        <mxCell id="xOspjYhr5WOX9m4JDDgR-22" value="&lt;div style=&quot;font-family: Consolas, &amp;quot;Courier New&amp;quot;, monospace; font-size: 18px; line-height: 19px; white-space: pre;&quot;&gt;&lt;div style=&quot;&quot;&gt;&lt;span style=&quot;background-color: rgb(255, 255, 255);&quot;&gt;PrintArray(array);&lt;/span&gt;&lt;/div&gt;&lt;div style=&quot;&quot;&gt;&lt;span style=&quot;background-color: rgb(255, 255, 255);&quot;&gt;Console.Write(&quot;→ &quot;);&lt;/span&gt;&lt;/div&gt;&lt;div style=&quot;&quot;&gt;&lt;span style=&quot;background-color: rgb(255, 255, 255);&quot;&gt;PrintArray(NewArray);&lt;/span&gt;&lt;/div&gt;&lt;/div&gt;" style="shape=document;whiteSpace=wrap;html=1;boundedLbl=1;" vertex="1" parent="WIyWlLk6GJQsqaUBKTNV-1">
          <mxGeometry x="244.5" y="960" width="310" height="120" as="geometry" />
        </mxCell>
        <mxCell id="xOspjYhr5WOX9m4JDDgR-26" value="" style="edgeStyle=orthogonalEdgeStyle;rounded=0;orthogonalLoop=1;jettySize=auto;html=1;" edge="1" parent="WIyWlLk6GJQsqaUBKTNV-1" source="xOspjYhr5WOX9m4JDDgR-24" target="xOspjYhr5WOX9m4JDDgR-13">
          <mxGeometry relative="1" as="geometry" />
        </mxCell>
        <mxCell id="xOspjYhr5WOX9m4JDDgR-24" value="&lt;div style=&quot;font-family: Consolas, &amp;quot;Courier New&amp;quot;, monospace; font-size: 18px; line-height: 19px; white-space: pre;&quot;&gt;&lt;div style=&quot;&quot;&gt;&lt;span style=&quot;background-color: rgb(255, 255, 255);&quot;&gt;string[]NewArray = new string[lenArray];&lt;/span&gt;&lt;/div&gt;&lt;div style=&quot;&quot;&gt;&lt;span style=&quot;background-color: rgb(255, 255, 255);&quot;&gt;int index = 0;&lt;/span&gt;&lt;/div&gt;&lt;/div&gt;" style="shape=parallelogram;perimeter=parallelogramPerimeter;whiteSpace=wrap;html=1;fixedSize=1;" vertex="1" parent="WIyWlLk6GJQsqaUBKTNV-1">
          <mxGeometry x="149.5" y="540" width="500" height="60" as="geometry" />
        </mxCell>
        <mxCell id="xOspjYhr5WOX9m4JDDgR-32" value="FINISH" style="ellipse;whiteSpace=wrap;html=1;" vertex="1" parent="WIyWlLk6GJQsqaUBKTNV-1">
          <mxGeometry x="339.5" y="1100" width="120" height="60" as="geometry" />
        </mxCell>
      </root>
    </mxGraphModel>
  </diagram>
</mxfile>
